<svg xmlns="http://www.w3.org/2000/svg" viewBox="0 0 1024 1024"><defs><style>.cls-1{fill:#fff;}.cls-2{fill:#221e1f;}</style></defs><g id="Background"><rect id="Background-2" data-name="Background" class="cls-1" width="1024" height="1024"/></g><g id="東西們"><g id="文字"><path class="cls-2" d="M96.39,583.63l21.76-26.11c13.57,12.55,31.48,21,48.12,21,19.72,0,30.21-8.44,30.21-21.76,0-14.07-11.52-18.43-28.41-25.59L142.72,520.4c-19.2-7.93-38.4-23.29-38.4-50.94,0-31,27.14-54.78,65.54-54.78,22,0,44,8.7,59.39,24.32l-19.2,23.8c-12-10-24.58-15.61-40.19-15.61-16.64,0-27.39,7.42-27.39,20,0,13.56,13.56,18.43,29.69,24.83L197,502.48c23,9.48,38.15,24.07,38.15,51.46,0,31-25.86,57.34-69.63,57.34A100.91,100.91,0,0,1,96.39,583.63Z"/><path class="cls-2" d="M363.91,449.75v158H326v-158"/><path class="cls-2" d="M473,522.45V418.26h37.89V525.78c0,39.42,13.57,52.73,35.84,52.73,22.53,0,36.86-13.31,36.86-52.73V418.26h36.36V522.45c0,63-26.88,88.83-73.22,88.83C500.61,611.28,473,585.43,473,522.45Z"/><path class="cls-2" d="M691.07,418.26H729V607.7H691.07Z"/><path class="cls-2" d="M834.68,509.91l-49.92-91.65h42l18.94,38.91c4.35,9,8.45,18.18,14.08,29.95h1.28c4.61-11.77,8.45-21,12.55-29.95l17.91-38.91h39.94L881.53,511.7l53.25,96h-42l-21.24-42c-4.87-9.72-9.22-19.71-14.85-31.23h-1c-4.87,11.52-9.22,21.51-13.83,31.23l-20.22,42H781.44Z"/></g><g id="帽帽"><path class="cls-2" d="M270.8,400.73"/><path class="cls-2" d="M344.36,375.69"/><polyline class="cls-2" points="344.37 425.77 270.8 400.73 344.37 375.7 417.93 400.75"/><line class="cls-2" x1="344.36" y1="425.79" x2="417.93" y2="400.74"/><polygon class="cls-2" points="338.94 430.6 276.63 409.43 276.23 420.97 338.94 442.29 338.94 430.6"/><polygon class="cls-2" points="349.79 430.6 412.09 409.43 412.5 420.97 349.79 442.29 349.79 430.6"/><path class="cls-2" d="M417.93,400.74c-.28,40,.18,55.1.95,57.2a2.34,2.34,0,0,1,0,1.95c-.75,1.14-3.53,1.14-4.28,0a2.25,2.25,0,0,1,0-1.85c.71-2,.91-16.91,0-56.17"/></g></g></svg>