<svg id="Layer_1" data-name="Layer 1" xmlns="http://www.w3.org/2000/svg" viewBox="0 0 1024 1024"><defs><style>.cls-1{fill:#565656;stroke:#231f20;stroke-miterlimit:10;}.cls-2{font-size:256px;font-family:NotoSansCJKtc-Bold-B5pc-H, Noto Sans CJK TC;letter-spacing:0.08em;}.cls-2,.cls-5{fill:#fff;}.cls-3{letter-spacing:0.1em;}.cls-4{fill:#565856;}</style></defs><title>Artboard 1</title><rect class="cls-1" width="1024" height="1024"/><text class="cls-2" transform="translate(85.64 607.7)">S<tspan class="cls-3" x="179.46" y="0">TUIX</tspan></text><polygon class="cls-4" points="425.58 450.27 343.41 450.27 261.23 450.27 261.23 408.01 343.41 408.01 425.58 408.01 425.58 428.04 425.58 450.27"/><polyline class="cls-5" points="345.41 379.07 271.84 404.11 345.41 404.11"/><polyline class="cls-5" points="345.41 429.15 271.84 404.11 345.41 404.11"/><polyline class="cls-5" points="345.41 379.08 418.97 404.13 345.41 404.13"/><polyline class="cls-5" points="345.41 429.17 418.97 404.13 345.41 404.13"/><polygon class="cls-5" points="339.98 433.99 277.68 412.81 277.27 424.35 339.98 445.67 339.98 433.99"/><polygon class="cls-5" points="350.83 433.99 413.13 412.81 413.54 424.35 350.83 445.67 350.83 433.99"/><path class="cls-5" d="M415.67,405.25c.91,39.26.71,54.13,0,56.17a2.25,2.25,0,0,0,0,1.85c.75,1.14,3.53,1.14,4.28,0a2.34,2.34,0,0,0,0-1.95c-.77-2.1-1.23-17.17-.95-57.19"/></svg>